<?xml version="1.0" standalone="no"?>
<!DOCTYPE svg PUBLIC "-//W3C//DTD SVG 20010904//EN"
 "http://www.w3.org/TR/2001/REC-SVG-20010904/DTD/svg10.dtd">
<svg version="1.0" xmlns="http://www.w3.org/2000/svg"
 width="64.000000pt" height="64.000000pt" viewBox="0 0 64.000000 64.000000"
 preserveAspectRatio="xMidYMid meet">
<metadata>
Created by potrace 1.16, written by Peter Selinger 2001-2019
</metadata>
<g transform="translate(0.000000,64.000000) scale(0.100000,-0.100000)"
fill="#000000" stroke="none">
<path d="M81 626 c-17 -20 -19 -68 -3 -73 7 -3 12 4 12 19 0 29 17 48 42 48
17 0 18 -15 18 -218 l0 -218 -30 -11 -30 -11 0 184 c0 166 -7 213 -24 168 -10
-27 -6 -407 5 -447 18 -65 28 -68 275 -65 205 3 219 4 222 22 2 10 -2 29 -8
42 -11 19 -10 29 4 59 15 30 17 65 14 259 -2 171 -6 227 -17 239 -12 15 -42
17 -241 17 -184 0 -230 -3 -239 -14z m457 -18 c9 -9 12 -72 12 -220 l0 -208
-190 0 -190 0 0 220 0 220 178 0 c125 0 182 -4 190 -12z m-8 -518 c0 -19 -7
-20 -147 -21 -178 -2 -225 0 -237 11 -25 24 13 30 195 30 182 0 189 -1 189
-20z"/>
<path d="M314 569 c-38 -11 -77 -51 -72 -75 2 -10 18 -29 37 -41 39 -26 116
-31 145 -10 16 12 9 13 -52 13 -61 -1 -75 2 -94 21 -21 22 -21 23 -3 43 24 27
29 25 42 -10 9 -24 17 -30 42 -30 25 0 34 6 43 28 17 38 16 37 38 17 13 -11
18 -25 14 -37 -3 -10 -1 -18 5 -18 5 0 13 9 16 21 9 27 -27 66 -74 79 -41 11
-45 11 -87 -1z"/>
</g>
</svg>
