<?xml version="1.0" standalone="no"?>
<!DOCTYPE svg PUBLIC "-//W3C//DTD SVG 20010904//EN"
 "http://www.w3.org/TR/2001/REC-SVG-20010904/DTD/svg10.dtd">
<svg version="1.0" xmlns="http://www.w3.org/2000/svg"
 width="64.000000pt" height="64.000000pt" viewBox="0 0 64.000000 64.000000"
 preserveAspectRatio="xMidYMid meet">
<metadata>
Created by potrace 1.16, written by Peter Selinger 2001-2019
</metadata>
<g transform="translate(0.000000,64.000000) scale(0.100000,-0.100000)"
fill="#000000" stroke="none">
<path d="M112 620 c-54 -33 -62 -67 -62 -266 0 -136 3 -175 13 -172 8 3 13 34
15 99 2 78 6 97 21 110 11 9 21 27 23 40 2 16 11 25 26 27 27 4 40 -23 24 -49
-10 -15 -8 -18 16 -21 l27 -3 5 -130 c5 -122 6 -130 26 -133 22 -3 114 65 114
86 0 20 -14 14 -57 -23 -23 -19 -44 -35 -47 -35 -3 0 -6 77 -6 170 0 94 2 170
5 170 8 0 205 -163 205 -170 0 -3 -20 -23 -45 -43 -44 -37 -56 -57 -34 -57 6
0 33 19 60 42 37 31 49 48 49 68 0 32 22 45 51 30 12 -7 19 -21 19 -38 0 -24
-23 -47 -156 -156 -85 -71 -168 -133 -183 -139 -61 -23 -141 32 -141 97 0 25
-4 36 -15 36 -40 0 -3 -109 47 -140 37 -23 111 -26 144 -7 12 7 89 68 172 136
151 124 169 146 156 194 -6 27 -85 97 -108 97 -9 0 -16 6 -16 13 0 12 -161
150 -204 174 -33 19 -107 16 -144 -7z"/>
</g>
</svg>
